<svg width="28" height="54" viewBox="0 0 28 54" fill="none" xmlns="http://www.w3.org/2000/svg">
<g id="mac_studio_light__ea3pb1auizu6_large 1" clip-path="url(#clip0_107_372)">
<path id="Vector" d="M0 35V48.096C0 48.896 0.4 49.396 1 49.396H2.9L3.7 50H24.3L25.1 49.396H27C27.6 49.396 28 48.896 28 48.096V35H0ZM23.4 47.8285C22.7446 47.8039 22.2333 47.2526 22.2578 46.5971C22.2823 45.9416 22.8336 45.4301 23.489 45.4547C24.1277 45.4787 24.6329 46.004 24.632 46.6433C24.6202 47.3097 24.0705 47.8404 23.4043 47.8286M23.4043 47.8286C23.4029 47.8286 23.4015 47.8285 23.4 47.8285L23.4043 47.8286Z" fill="#1D1D1F"/>
</g>
<defs>
<clipPath id="clip0_107_372">
<rect width="28" height="54" fill="white"/>
</clipPath>
</defs>
</svg>
