<svg width="79" height="54" viewBox="0 0 79 54" fill="none" xmlns="http://www.w3.org/2000/svg">
<g id="macbookair_light__f0o95rwae8ae_large 1" clip-path="url(#clip0_106_348)">
<path id="Vector" d="M24.8174 49.2501C24.9348 49.3158 25.1396 49.4242 25.4028 49.55H7.87042L7.37042 50H4.37042L3.87042 49.55H1.00012C0.484121 49.5046 -0.00887864 49.0679 0.000121363 48.55V48H5.00032C5.00032 48 4.99962 18.8868 5.00032 18.8503C5.01922 17.8922 5.81352 16.981 6.75032 17.0003L51.2499 17.0098C52.2279 17.0216 52.9884 17.8501 52.9999 18.8503V22H51.5001V19.0395C51.5001 18.6235 51.4069 18.6003 51.0001 18.6003C51.0001 18.6003 32.0025 18.5304 32.0001 18.5698C31.9681 19.1115 31.5298 19.633 31.0001 19.6003H27.0001C26.4546 19.5623 26.0372 19.1278 26.0001 18.5698L7.00012 18.6003C6.59342 18.6003 6.50012 18.7275 6.50012 19.0395V48H23.8484L24.1315 48.4958C24.1529 48.544 24.1872 48.6141 24.2299 48.6912C24.3369 48.884 24.5159 49.1293 24.8174 49.2501ZM77 48C76.9473 48.0923 76.6484 48.3232 76.564 48.3232C76.564 48.3232 74.4937 49.5737 71.9253 49.7451C69.3584 49.9165 63.335 49.9971 63.335 49.9971H37.4463C37.446 49.9978 37.4277 49.9982 37.3931 49.9982C36.8482 49.9982 32.2634 49.9085 29.8506 49.7451C29.3833 49.7135 28.9417 49.6388 28.5167 49.55C27.4313 49.3233 26.5164 48.9664 25.9276 48.6912C25.4802 48.4822 25.2114 48.3232 25.2114 48.3232C25.1274 48.3232 25.0526 48.0923 25 48H30V24.5C30 23.5044 30.522 23 31.5 23H70.5C71.4775 23 72 23.5415 72 24.5V48H77ZM70 25H32V48H70V25Z" fill="#1D1D1F"/>
</g>
<defs>
<clipPath id="clip0_106_348">
<rect width="79" height="54" fill="white"/>
</clipPath>
</defs>
</svg>
