<svg width="34" height="54" viewBox="0 0 34 54" fill="none" xmlns="http://www.w3.org/2000/svg">
<g id="mac_accessories_light__cuds10wyptyu_large 1" clip-path="url(#clip0_107_388)">
<path id="Vector" d="M17 16.5438C26.9364 16.5438 33.5 23.6143 33.5 34.3026C33.5 39.2255 32.0616 44.644 29.6478 48.8566C29.3998 49.3192 28.9203 49.4844 28.4409 49.3357C27.7465 50.393 26.5561 50.7894 25.1674 50.393C23.448 49.8809 22.6709 48.4271 23.1834 46.6926L25.6303 38.6474C26.1428 36.9459 27.5647 36.1694 29.3172 36.6815C30.1273 36.9293 30.7225 37.3753 31.0862 37.97C31.2681 36.731 31.3507 35.5085 31.3507 34.3026C31.3507 24.9524 25.5972 18.6913 17 18.6913C8.3863 18.6913 2.6493 24.9523 2.6493 34.3026C2.6493 35.5085 2.732 36.731 2.9138 37.9535C3.261 37.3753 3.8562 36.9293 4.6663 36.6815C6.4188 36.1694 7.8406 36.9458 8.3532 38.6474L10.8001 46.6926C11.3126 48.4107 10.5356 49.8809 8.8161 50.393C7.4273 50.7895 6.2369 50.393 5.5426 49.3357C5.0631 49.4844 4.5837 49.3192 4.3357 48.8566C1.9219 44.644 0.5 39.2255 0.5 34.3026C0.5 23.6143 7.0471 16.5438 17 16.5438Z" fill="#1D1D1F"/>
</g>
<defs>
<clipPath id="clip0_107_388">
<rect width="34" height="54" fill="white"/>
</clipPath>
</defs>
</svg>
