<svg width="35" height="54" viewBox="0 0 35 54" fill="none" xmlns="http://www.w3.org/2000/svg">
<g id="mac_os_light__d0zczt34scq6_large 1">
<path id="Vector" d="M16.3 36.64C16.3 39.5 14.81 41.3 12.43 41.3C10.05 41.3 8.56 39.49 8.56 36.64C8.56 33.77 10.05 31.97 12.43 31.97C14.81 31.97 16.3 33.77 16.3 36.64ZM19.62 26.55L18.58 26.62C17.99 26.66 17.73 26.87 17.73 27.25C17.73 27.65 18.06 27.87 18.52 27.87C19.15 27.87 19.62 27.46 19.62 26.91V26.55ZM34.5 33C34.5 42.49 26.99 50 17.5 50C8.01 50 0.5 42.49 0.5 33C0.5 23.51 8.01 16 17.5 16C26.99 16 34.5 23.51 34.5 33ZM21.44 26.34C21.44 27.72 22.2 28.56 23.44 28.56C24.49 28.56 25.15 27.97 25.26 27.13H24.44C24.33 27.59 23.97 27.84 23.44 27.84C22.74 27.84 22.31 27.27 22.31 26.34C22.31 25.42 22.74 24.87 23.44 24.87C24 24.87 24.35 25.19 24.44 25.6H25.26C25.15 24.78 24.51 24.16 23.44 24.16C22.2 24.15 21.44 24.99 21.44 26.34ZM10.01 24.24V28.48H10.85V25.88C10.85 25.33 11.24 24.89 11.75 24.89C12.25 24.89 12.57 25.19 12.57 25.67V28.48H13.39V25.8C13.39 25.29 13.74 24.89 14.29 24.89C14.84 24.89 15.11 25.17 15.11 25.76V28.48H15.95V25.55C15.95 24.67 15.45 24.15 14.59 24.15C14 24.15 13.51 24.45 13.3 24.91H13.23C13.04 24.45 12.64 24.15 12.06 24.15C11.49 24.15 11.06 24.43 10.88 24.91H10.82V24.23L10.01 24.24ZM17.79 36.64C17.79 32.95 15.73 30.63 12.43 30.63C9.13 30.63 7.07 32.95 7.07 36.64C7.07 40.33 9.13 42.64 12.43 42.64C15.73 42.64 17.79 40.32 17.79 36.64ZM18.31 28.55C18.87 28.55 19.33 28.31 19.59 27.88H19.66V28.48H20.47V25.58C20.47 24.69 19.87 24.16 18.8 24.16C17.83 24.16 17.15 24.63 17.06 25.34H17.87C17.96 25.03 18.29 24.86 18.76 24.86C19.33 24.86 19.63 25.12 19.63 25.59V25.96L18.48 26.03C17.47 26.09 16.9 26.53 16.9 27.3C16.89 28.06 17.49 28.55 18.31 28.55ZM27.48 39.14C27.48 37.49 26.52 36.53 24.1 36L22.81 35.72C21.22 35.37 20.6 34.74 20.6 33.83C20.6 32.65 21.72 31.94 23.17 31.94C24.69 31.94 25.69 32.72 25.82 34H27.27C27.2 32.03 25.53 30.64 23.21 30.64C20.8 30.64 19.11 31.99 19.11 33.9C19.11 35.55 20.12 36.61 22.45 37.12L23.74 37.4C25.35 37.75 26 38.4 26 39.37C26 40.51 24.85 41.34 23.28 41.34C21.61 41.34 20.45 40.58 20.28 39.33H18.83C18.97 41.34 20.66 42.64 23.2 42.64C25.79 42.64 27.48 41.29 27.48 39.14Z" fill="#1D1D1F"/>
</g>
</svg>
