<svg width="72" height="54" viewBox="0 0 72 54" fill="none" xmlns="http://www.w3.org/2000/svg">
<g id="displays_light__ewxqx5obdxci_large 1" clip-path="url(#clip0_107_382)">
<path id="Vector" d="M47.9999 50V42.5H50.8814C50.9746 42.7196 51.1303 42.9069 51.3292 43.0386C51.5281 43.1702 51.7614 43.2405 51.9999 43.2405C52.2384 43.2405 52.4717 43.1702 52.6706 43.0386C52.8695 42.9069 53.0252 42.7196 53.1184 42.5H55.9999V49.98L47.9999 50ZM71.9999 20.5V40.5C71.9999 40.8978 71.8419 41.2793 71.5606 41.5607C71.2793 41.842 70.8977 42 70.4999 42H33.4999C33.1021 42 32.7205 41.842 32.4392 41.5607C32.1579 41.2793 31.9999 40.8978 31.9999 40.5V20.5C31.9999 20.1022 32.1579 19.7206 32.4392 19.4393C32.7205 19.158 33.1021 19 33.4999 19H70.4999C70.8977 19 71.2793 19.158 71.5606 19.4393C71.8419 19.7206 71.9999 20.1022 71.9999 20.5ZM69.9999 21H33.9999V40H69.9999V21ZM30.9999 40.1738C31.0009 40.4511 31.0281 40.7278 31.0812 41H1.5288C1.4788 40.9972 1.4279 40.9919 1.3779 40.9843C1.16765 40.9527 0.965693 40.8799 0.78357 40.7702C0.601447 40.6605 0.442724 40.516 0.316472 40.3449C0.190221 40.1739 0.0989134 39.9796 0.0477681 39.7732C-0.00337721 39.5668 -0.0133582 39.3524 0.0183953 39.1422V15.7087C-0.0107224 15.4918 0.00770245 15.2712 0.072391 15.0622C0.13708 14.8531 0.246482 14.6607 0.393006 14.4982C0.539529 14.3356 0.719663 14.207 0.920905 14.121C1.12215 14.0351 1.33968 13.994 1.5584 14.0006H44.5699C45.5399 14.0006 45.9999 14.7598 45.9999 15.7087V18H43.9999V16H1.9999V39H30.9999V40.1738ZM16.9999 50H28.9999V41.5H16.9999V50Z" fill="#1D1D1F"/>
</g>
<defs>
<clipPath id="clip0_107_382">
<rect width="72" height="54" fill="white"/>
</clipPath>
</defs>
</svg>
